<?xml version="1.0" encoding="utf-8"?>
<!-- Generator: Adobe Illustrator 19.1.0, SVG Export Plug-In . SVG Version: 6.00 Build 0)  -->
<svg version="1.1" id="Layer_1" xmlns="http://www.w3.org/2000/svg" xmlns:xlink="http://www.w3.org/1999/xlink" x="0px" y="0px"
	 viewBox="0 0 144 144" style="enable-background:new 0 0 144 144;" xml:space="preserve">
<style type="text/css">
	.st0{fill:#FFFFFF;stroke:#EA4D29;stroke-width:4;stroke-miterlimit:10;}
	.st1{fill:#EB4C2B;}
	.st2{fill:#222A33;}
</style>
<rect x="11.4" y="11.8" class="st0" width="121.3" height="121.3"/>
<g>
	<rect x="70.3" y="98.9" class="st1" width="13.1" height="21.4"/>
	<rect x="68.9" y="106.1" class="st1" width="3.1" height="8.1"/>
	<rect x="81.5" y="104.2" class="st1" width="4.2" height="8.4"/>
	<path class="st2" d="M41.5,90.1h17.8V98h-8.2v3.4h8v7.5h-8v3.5h8.5v7.9H41.5V90.1z"/>
	<path class="st2" d="M23.8,98h-5.6v-7.9h21.2V98h-5.6v22.3h-10V98z"/>
	<path class="st2" d="M94.1,90.1h8l7.9,11.6l7.9-11.6h8v30.3h-9.7v-10.9l-6.2,9.1l-6.2-9.1v10.9h-9.7V90.1z"/>
	<path class="st2" d="M75.9,116c-0.5-0.9-1-1.9-1.6-2.7c-0.1-0.2-0.6-0.3-0.9-0.3c-1.4,0.3-2.5-0.7-3.6-1.3
		c-0.2-0.1-0.4-0.8-0.3-1.1c0.1-0.8,0.4-1.6,0.6-2.4c0.2-0.6,0.5-1.6,0.7-1.7c0.1-0.2,0.3-0.2,0.8-0.2c0.5,0.1,1.1,0.7,0.9,1.6
		c-0.3,0-0.7,0-1.3-0.3c0.2,1,0.3,1.9,0.3,2.6c0.8,0.2,0.9,0.2,1.2,0.1c0.9-0.7,2.4-1.1,3.4,0.5c0.7,0.7,3.5,0,3.7-1
		c0.2-1,1.2-1.9,2.6-1.6c0.8,0.1,1.2-0.3,1.3-0.3c-0.5-0.8-0.9-1.6-1.2-2.9c-0.3,0.3-0.5,0.7-1,0.7c-0.4,0-0.6,0.5-0.9,0
		c-0.3-0.4-0.1-0.9,0.3-1.2c0.2-0.2,0.4-0.3,0.6-0.4c0.2-0.1,0.5-0.2,0.8-0.2c0.4,0.1,2.4,1.9,3.2,3.2c0.1,0.3,0,0.7-0.1,1.1
		c-0.1,0.4-0.4,0.8-0.6,1c-0.5,0.6-1,1.2-1.7,1.5c-0.9,0.5-1.3,1.5-0.8,3s0.2,5.5-0.1,6.2c0,0.1-0.1,0.2-0.1,0.3H92L80.5,90.1h-7.3
		l-11.5,30.3h14.8C76.8,118.9,76.6,117.4,75.9,116z M76.8,103.2c1.3,0,2.4,1.1,2.4,2.4c0,1.3-1.1,2.4-2.4,2.4
		c-1.3,0-2.4-1.1-2.4-2.4C74.4,104.3,75.5,103.2,76.8,103.2z"/>
</g>
<g>
	<path class="st2" d="M67.1,32.2h-5.6v-7.9h21.2v7.9H77v22.3h-10V32.2z"/>
	<path class="st2" d="M77,46.6h5.6v7.9H61.5v-7.9h5.6V24.2h10V46.6z"/>
</g>
<g>
	<path class="st2" d="M72.2,66.3h3.2l3.4,4.7v-4.7h3.8v12.3h-3.2L76,73.9v4.7h-3.8V66.3z"/>
	<g>
		<path class="st2" d="M63.7,69.5h-2.3v-3.2H70v3.2h-2.3v9h-4V69.5z"/>
		<path class="st2" d="M67.8,75.3H70v3.2h-8.6v-3.2h2.3v-9h4V75.3z"/>
	</g>
</g>
</svg>
