<?xml version="1.0" encoding="utf-8"?>
<!-- Generator: Adobe Illustrator 19.1.0, SVG Export Plug-In . SVG Version: 6.00 Build 0)  -->
<svg version="1.1" id="Layer_1" xmlns="http://www.w3.org/2000/svg" xmlns:xlink="http://www.w3.org/1999/xlink" x="0px" y="0px"
	 viewBox="0 0 72 72" style="enable-background:new 0 0 72 72;" xml:space="preserve">
<style type="text/css">
	.st0{fill:#055587;stroke:#222A33;stroke-width:0.25;stroke-miterlimit:10;}
	.st1{fill:#8A3B1E;}
	.st2{fill:url(#SVGID_1_);}
	.st3{fill:#FFC841;stroke:#8A3C1E;stroke-width:0.35;stroke-miterlimit:10;}
	.st4{fill:none;stroke:#8A3C1E;stroke-width:0.25;stroke-miterlimit:10;}
	.st5{fill:none;stroke:#8A3C1E;stroke-width:0.1;stroke-miterlimit:10;}
</style>
<g>
	<g>
		<polygon class="st0" points="40,12.3 54.5,55.4 38.6,67.9 29.9,16.9 		"/>
		<polygon class="st0" points="31.4,12.3 16.9,55.4 32.8,67.9 41.5,16.9 		"/>
	</g>
	<g>
		<path class="st0" d="M38.3,6.1c0,0-3.8-3.4-6.1-1.3l0.8,5.8l6.2,0.7L38.3,6.1z"/>
		<path class="st0" d="M43.4,7.4c0,0-2.8-4.3-5.6-2.8l-0.7,5.8l5.8,2.3L43.4,7.4z"/>
		<path class="st0" d="M48,10c0,0-1.6-4.8-4.6-4.2l-2.2,5.5l5,3.7L48,10z"/>
		<path class="st0" d="M51.8,13.8c0,0-0.3-5.1-3.4-5.2l-3.5,4.7l3.9,4.9L51.8,13.8z"/>
		<path class="st0" d="M54.5,18.4c0,0,1-5-1.9-5.9l-4.6,3.6l2.5,5.7L54.5,18.4z"/>
		<path class="st0" d="M55.9,23.5c0,0,2.3-4.6-0.3-6.2l-5.4,2.3l0.9,6.2L55.9,23.5z"/>
		<path class="st0" d="M55.9,28.8c0,0,3.4-3.8,1.3-6.1l-5.8,0.8l-0.7,6.2L55.9,28.8z"/>
		<path class="st0" d="M54.6,34c0,0,4.3-2.8,2.8-5.6l-5.8-0.7l-2.3,5.8L54.6,34z"/>
		<path class="st0" d="M51.9,38.6c0,0,4.8-1.6,4.2-4.6l-5.5-2.2l-3.7,5L51.9,38.6z"/>
		<path class="st0" d="M48.2,42.3c0,0,5.1-0.3,5.2-3.4l-4.7-3.5l-4.9,3.9L48.2,42.3z"/>
		<path class="st0" d="M43.6,45c0,0,5,1,5.9-1.9l-3.6-4.6L40.1,41L43.6,45z"/>
		<path class="st0" d="M38.5,46.4c0,0,4.6,2.3,6.2-0.3l-2.3-5.4l-6.2,0.9L38.5,46.4z"/>
		<path class="st0" d="M33.1,46.4c0,0,3.8,3.4,6.1,1.3l-0.8-5.8l-6.2-0.7L33.1,46.4z"/>
		<path class="st0" d="M28,45.1c0,0,2.8,4.3,5.6,2.8l0.7-5.8l-5.8-2.3L28,45.1z"/>
		<path class="st0" d="M23.4,42.5c0,0,1.6,4.8,4.6,4.2l2.2-5.5l-5-3.7L23.4,42.5z"/>
		<path class="st0" d="M19.6,38.7c0,0,0.3,5.1,3.4,5.2l3.5-4.7l-3.9-4.9L19.6,38.7z"/>
		<path class="st0" d="M16.9,34.1c0,0-1,5,1.9,5.9l4.6-3.6L21,30.7L16.9,34.1z"/>
		<path class="st0" d="M15.5,29c0,0-2.3,4.6,0.3,6.2l5.4-2.3l-0.9-6.2L15.5,29z"/>
		<path class="st0" d="M15.5,23.7c0,0-3.4,3.8-1.3,6.1l5.8-0.8l0.7-6.2L15.5,23.7z"/>
		<path class="st0" d="M16.9,18.5c0,0-4.3,2.8-2.8,5.6l5.8,0.7l2.3-5.8L16.9,18.5z"/>
		<path class="st0" d="M19.5,13.9c0,0-4.8,1.6-4.2,4.6l5.5,2.2l3.7-5L19.5,13.9z"/>
		<path class="st0" d="M23.3,10.1c0,0-5.1,0.3-5.2,3.4l4.7,3.5l4.9-3.9L23.3,10.1z"/>
		<path class="st0" d="M27.8,7.5c0,0-5-1-5.9,1.9l3.6,4.6l5.7-2.5L27.8,7.5z"/>
		<path class="st0" d="M32.3,6.1c0,0-3.9-2.3-5.6,0.3l2.3,5.4l4.3,1.5L32.3,6.1z"/>
	</g>
	<g>
		<circle class="st1" cx="35.7" cy="26.2" r="17.2"/>
		<linearGradient id="SVGID_1_" gradientUnits="userSpaceOnUse" x1="23.9022" y1="38.0606" x2="47.531" y2="14.4318">
			<stop  offset="0" style="stop-color:#FEC840"/>
			<stop  offset="2.514322e-02" style="stop-color:#FEC947"/>
			<stop  offset="6.016036e-02" style="stop-color:#FFCD5A"/>
			<stop  offset="0.101" style="stop-color:#FFD475"/>
			<stop  offset="0.1462" style="stop-color:#FFDE95"/>
			<stop  offset="0.1951" style="stop-color:#FFEAC1"/>
			<stop  offset="0.2462" style="stop-color:#FFFDF8"/>
			<stop  offset="0.25" style="stop-color:#FFFFFF"/>
			<stop  offset="0.2603" style="stop-color:#FFF6E7"/>
			<stop  offset="0.287" style="stop-color:#FFE9BA"/>
			<stop  offset="0.3147" style="stop-color:#FFDD93"/>
			<stop  offset="0.3429" style="stop-color:#FFD474"/>
			<stop  offset="0.3716" style="stop-color:#FFCC55"/>
			<stop  offset="0.4011" style="stop-color:#FEC73A"/>
			<stop  offset="0.4315" style="stop-color:#FDC325"/>
			<stop  offset="0.4636" style="stop-color:#FDC015"/>
			<stop  offset="0.5" style="stop-color:#FDC010"/>
			<stop  offset="0.5366" style="stop-color:#FDC015"/>
			<stop  offset="0.5687" style="stop-color:#FDC325"/>
			<stop  offset="0.5991" style="stop-color:#FEC73A"/>
			<stop  offset="0.6285" style="stop-color:#FFCC55"/>
			<stop  offset="0.6571" style="stop-color:#FFD473"/>
			<stop  offset="0.6852" style="stop-color:#FFDD93"/>
			<stop  offset="0.7129" style="stop-color:#FFE8BA"/>
			<stop  offset="0.7395" style="stop-color:#FFF6E6"/>
			<stop  offset="0.75" style="stop-color:#FFFFFF"/>
			<stop  offset="0.7661" style="stop-color:#FFF2DA"/>
			<stop  offset="0.7902" style="stop-color:#FFE6B1"/>
			<stop  offset="0.8155" style="stop-color:#FFDB8D"/>
			<stop  offset="0.8416" style="stop-color:#FFD26E"/>
			<stop  offset="0.8685" style="stop-color:#FECB51"/>
			<stop  offset="0.8966" style="stop-color:#FEC638"/>
			<stop  offset="0.9264" style="stop-color:#FDC223"/>
			<stop  offset="0.959" style="stop-color:#FDC015"/>
			<stop  offset="1" style="stop-color:#FDC010"/>
		</linearGradient>
		<circle class="st2" cx="35.7" cy="26.2" r="16.7"/>
		<path class="st3" d="M30.1,35.1v-4.2l2.7-0.6v-9.7l-2.2,0.6l-1.2-4l6.3-1.8h2.9v14.8l2.7,0.6v4.2H30.1z"/>
		<circle class="st4" cx="35.7" cy="26.2" r="16.1"/>
		<g>
			<circle class="st5" cx="35.7" cy="11" r="0.4"/>
			<circle class="st5" cx="34.4" cy="11.1" r="0.4"/>
			<circle class="st5" cx="33" cy="11.3" r="0.4"/>
			<circle class="st5" cx="31.8" cy="11.6" r="0.4"/>
			<circle class="st5" cx="30.5" cy="12" r="0.4"/>
			<circle class="st5" cx="29.3" cy="12.5" r="0.4"/>
			<circle class="st5" cx="28.1" cy="13.1" r="0.4"/>
			<circle class="st5" cx="27" cy="13.8" r="0.4"/>
			<circle class="st5" cx="25.9" cy="14.6" r="0.4"/>
			<circle class="st5" cx="24.9" cy="15.5" r="0.4"/>
			<circle class="st5" cx="24" cy="16.5" r="0.4"/>
			<circle class="st5" cx="23.2" cy="17.5" r="0.4"/>
			<circle class="st5" cx="22.5" cy="18.7" r="0.4"/>
			<circle class="st5" cx="21.9" cy="19.8" r="0.4"/>
			<circle class="st5" cx="21.4" cy="21.1" r="0.4"/>
			<circle class="st5" cx="21" cy="22.3" r="0.4"/>
			<circle class="st5" cx="20.7" cy="23.6" r="0.4"/>
			<circle class="st5" cx="20.6" cy="24.9" r="0.4"/>
			<circle class="st5" cx="20.5" cy="26.3" r="0.4"/>
			<circle class="st5" cx="20.6" cy="27.6" r="0.4"/>
			<circle class="st5" cx="20.7" cy="28.9" r="0.4"/>
			<circle class="st5" cx="21" cy="30.2" r="0.4"/>
			<circle class="st5" cx="21.4" cy="31.5" r="0.4"/>
			<circle class="st5" cx="21.9" cy="32.7" r="0.4"/>
			<circle class="st5" cx="22.5" cy="33.9" r="0.4"/>
			<circle class="st5" cx="23.3" cy="35" r="0.4"/>
			<circle class="st5" cx="24.1" cy="36" r="0.4"/>
			<circle class="st5" cx="25" cy="37" r="0.4"/>
			<circle class="st5" cx="26" cy="37.9" r="0.4"/>
			<circle class="st5" cx="27" cy="38.7" r="0.4"/>
			<circle class="st5" cx="28.1" cy="39.4" r="0.4"/>
			<circle class="st5" cx="29.3" cy="40" r="0.4"/>
			<circle class="st5" cx="30.5" cy="40.6" r="0.4"/>
			<circle class="st5" cx="31.8" cy="41" r="0.4"/>
			<circle class="st5" cx="33.1" cy="41.2" r="0.4"/>
			<circle class="st5" cx="34.4" cy="41.4" r="0.4"/>
			<circle class="st5" cx="35.7" cy="41.5" r="0.4"/>
			<circle class="st5" cx="37.1" cy="41.4" r="0.4"/>
			<circle class="st5" cx="38.4" cy="41.2" r="0.4"/>
			<circle class="st5" cx="39.7" cy="40.9" r="0.4"/>
			<circle class="st5" cx="40.9" cy="40.5" r="0.4"/>
			<circle class="st5" cx="42.2" cy="40" r="0.4"/>
			<circle class="st5" cx="43.3" cy="39.4" r="0.4"/>
			<circle class="st5" cx="44.5" cy="38.7" r="0.4"/>
			<circle class="st5" cx="45.5" cy="37.9" r="0.4"/>
			<circle class="st5" cx="46.5" cy="37" r="0.4"/>
			<circle class="st5" cx="47.4" cy="36" r="0.4"/>
			<circle class="st5" cx="48.2" cy="35" r="0.4"/>
			<circle class="st5" cx="48.9" cy="33.8" r="0.4"/>
			<circle class="st5" cx="49.5" cy="32.7" r="0.4"/>
			<circle class="st5" cx="50" cy="31.4" r="0.4"/>
			<circle class="st5" cx="50.4" cy="30.2" r="0.4"/>
			<circle class="st5" cx="50.7" cy="28.9" r="0.4"/>
			<circle class="st5" cx="50.9" cy="27.5" r="0.4"/>
			<circle class="st5" cx="50.9" cy="26.2" r="0.4"/>
			<circle class="st5" cx="50.9" cy="24.9" r="0.4"/>
			<circle class="st5" cx="50.7" cy="23.6" r="0.4"/>
			<circle class="st5" cx="50.4" cy="22.3" r="0.4"/>
			<circle class="st5" cx="50" cy="21" r="0.4"/>
			<circle class="st5" cx="49.5" cy="19.8" r="0.4"/>
			<circle class="st5" cx="48.9" cy="18.6" r="0.4"/>
			<circle class="st5" cx="48.2" cy="17.5" r="0.4"/>
			<circle class="st5" cx="47.4" cy="16.4" r="0.4"/>
			<circle class="st5" cx="46.5" cy="15.5" r="0.4"/>
			<circle class="st5" cx="45.5" cy="14.6" r="0.4"/>
			<circle class="st5" cx="44.4" cy="13.8" r="0.4"/>
			<circle class="st5" cx="43.3" cy="13.1" r="0.4"/>
			<circle class="st5" cx="42.1" cy="12.4" r="0.4"/>
			<circle class="st5" cx="40.9" cy="11.9" r="0.4"/>
			<circle class="st5" cx="39.6" cy="11.5" r="0.4"/>
			<circle class="st5" cx="38.3" cy="11.3" r="0.4"/>
			<circle class="st5" cx="37" cy="11.1" r="0.4"/>
		</g>
	</g>
</g>
</svg>
