<?xml version="1.0" encoding="utf-8"?>
<!-- Generator: Adobe Illustrator 19.1.0, SVG Export Plug-In . SVG Version: 6.00 Build 0)  -->
<svg version="1.1" id="Layer_1" xmlns="http://www.w3.org/2000/svg" xmlns:xlink="http://www.w3.org/1999/xlink" x="0px" y="0px"
	 viewBox="0 0 72 72" style="enable-background:new 0 0 72 72;" xml:space="preserve">
<style type="text/css">
	.st0{fill:#EA4D29;stroke:#222A33;stroke-width:0.25;stroke-miterlimit:10;}
	.st1{fill:#414042;}
	.st2{fill:url(#SVGID_1_);}
	.st3{fill:none;stroke:#414042;stroke-width:0.25;stroke-miterlimit:10;}
	.st4{fill:none;stroke:#414042;stroke-width:0.1;stroke-miterlimit:10;}
	.st5{fill:#A7A9AC;stroke:#414042;stroke-width:0.35;stroke-miterlimit:10;}
</style>
<g>
	<g>
		<polygon class="st0" points="40.2,13.1 54.7,56.2 38.8,68.7 30.1,17.7 		"/>
		<polygon class="st0" points="31.6,13.1 17.1,56.2 33,68.7 41.7,17.7 		"/>
	</g>
	<g>
		<path class="st0" d="M38.5,6.9c0,0-3.8-3.4-6.1-1.3l0.8,5.8l6.2,0.7L38.5,6.9z"/>
		<path class="st0" d="M43.6,8.2c0,0-2.8-4.3-5.6-2.8l-0.7,5.8l5.8,2.3L43.6,8.2z"/>
		<path class="st0" d="M48.2,10.9c0,0-1.6-4.8-4.6-4.2l-2.2,5.5l5,3.7L48.2,10.9z"/>
		<path class="st0" d="M52,14.6c0,0-0.3-5.1-3.4-5.2l-3.5,4.7L49,19L52,14.6z"/>
		<path class="st0" d="M54.7,19.2c0,0,1-5-1.9-5.9l-4.6,3.6l2.5,5.7L54.7,19.2z"/>
		<path class="st0" d="M56.1,24.3c0,0,2.3-4.6-0.3-6.2l-5.4,2.3l0.9,6.2L56.1,24.3z"/>
		<path class="st0" d="M56.1,29.6c0,0,3.4-3.8,1.3-6.1l-5.8,0.8l-0.7,6.2L56.1,29.6z"/>
		<path class="st0" d="M54.8,34.8c0,0,4.3-2.8,2.8-5.6l-5.8-0.7l-2.3,5.8L54.8,34.8z"/>
		<path class="st0" d="M52.1,39.4c0,0,4.8-1.6,4.2-4.6l-5.5-2.2l-3.7,5L52.1,39.4z"/>
		<path class="st0" d="M48.4,43.2c0,0,5.1-0.3,5.2-3.4l-4.7-3.5L44,40.2L48.4,43.2z"/>
		<path class="st0" d="M43.8,45.8c0,0,5,1,5.9-1.9l-3.6-4.6l-5.7,2.5L43.8,45.8z"/>
		<path class="st0" d="M38.7,47.2c0,0,4.6,2.3,6.2-0.3l-2.3-5.4l-6.2,0.9L38.7,47.2z"/>
		<path class="st0" d="M33.3,47.3c0,0,3.8,3.4,6.1,1.3l-0.8-5.8l-6.2-0.7L33.3,47.3z"/>
		<path class="st0" d="M28.2,45.9c0,0,2.8,4.3,5.6,2.8l0.7-5.8l-5.8-2.3L28.2,45.9z"/>
		<path class="st0" d="M23.6,43.3c0,0,1.6,4.8,4.6,4.2l2.2-5.5l-5-3.7L23.6,43.3z"/>
		<path class="st0" d="M19.8,39.5c0,0,0.3,5.1,3.4,5.2l3.5-4.7l-3.9-4.9L19.8,39.5z"/>
		<path class="st0" d="M17.1,34.9c0,0-1,5,1.9,5.9l4.6-3.6l-2.5-5.7L17.1,34.9z"/>
		<path class="st0" d="M15.7,29.8c0,0-2.3,4.6,0.3,6.2l5.4-2.3l-0.9-6.2L15.7,29.8z"/>
		<path class="st0" d="M15.7,24.5c0,0-3.4,3.8-1.3,6.1l5.8-0.8l0.7-6.2L15.7,24.5z"/>
		<path class="st0" d="M17.1,19.4c0,0-4.3,2.8-2.8,5.6l5.8,0.7l2.3-5.8L17.1,19.4z"/>
		<path class="st0" d="M19.7,14.7c0,0-4.8,1.6-4.2,4.6l5.5,2.2l3.7-5L19.7,14.7z"/>
		<path class="st0" d="M23.4,11c0,0-5.1,0.3-5.2,3.4l4.7,3.5l4.9-3.9L23.4,11z"/>
		<path class="st0" d="M28,8.3c0,0-5-1-5.9,1.9l3.6,4.6l5.7-2.5L28,8.3z"/>
		<path class="st0" d="M32.5,6.9c0,0-3.9-2.3-5.6,0.3l2.3,5.4l4.3,1.5L32.5,6.9z"/>
	</g>
	<g>
		<circle class="st1" cx="35.9" cy="27.1" r="17.2"/>
		<linearGradient id="SVGID_1_" gradientUnits="userSpaceOnUse" x1="24.096" y1="38.883" x2="47.7248" y2="15.2542">
			<stop  offset="0" style="stop-color:#A7A9AC"/>
			<stop  offset="0.25" style="stop-color:#FFFFFF"/>
			<stop  offset="0.5" style="stop-color:#A7A9AC"/>
			<stop  offset="0.75" style="stop-color:#FFFFFF"/>
			<stop  offset="1" style="stop-color:#A7A9AC"/>
		</linearGradient>
		<circle class="st2" cx="35.9" cy="27.1" r="16.7"/>
		<circle class="st3" cx="35.9" cy="27.1" r="16.1"/>
		<g>
			<circle class="st4" cx="35.9" cy="11.9" r="0.4"/>
			<circle class="st4" cx="34.6" cy="11.9" r="0.4"/>
			<circle class="st4" cx="33.2" cy="12.1" r="0.4"/>
			<circle class="st4" cx="31.9" cy="12.4" r="0.4"/>
			<circle class="st4" cx="30.7" cy="12.8" r="0.4"/>
			<circle class="st4" cx="29.5" cy="13.3" r="0.4"/>
			<circle class="st4" cx="28.3" cy="13.9" r="0.4"/>
			<circle class="st4" cx="27.2" cy="14.6" r="0.4"/>
			<circle class="st4" cx="26.1" cy="15.4" r="0.4"/>
			<circle class="st4" cx="25.1" cy="16.3" r="0.4"/>
			<circle class="st4" cx="24.2" cy="17.3" r="0.4"/>
			<circle class="st4" cx="23.4" cy="18.4" r="0.4"/>
			<circle class="st4" cx="22.7" cy="19.5" r="0.4"/>
			<circle class="st4" cx="22.1" cy="20.7" r="0.4"/>
			<circle class="st4" cx="21.6" cy="21.9" r="0.4"/>
			<circle class="st4" cx="21.2" cy="23.2" r="0.4"/>
			<circle class="st4" cx="20.9" cy="24.5" r="0.4"/>
			<circle class="st4" cx="20.7" cy="25.8" r="0.4"/>
			<circle class="st4" cx="20.7" cy="27.1" r="0.4"/>
			<circle class="st4" cx="20.8" cy="28.4" r="0.4"/>
			<circle class="st4" cx="20.9" cy="29.7" r="0.4"/>
			<circle class="st4" cx="21.2" cy="31" r="0.4"/>
			<circle class="st4" cx="21.6" cy="32.3" r="0.4"/>
			<circle class="st4" cx="22.1" cy="33.5" r="0.4"/>
			<circle class="st4" cx="22.7" cy="34.7" r="0.4"/>
			<circle class="st4" cx="23.5" cy="35.8" r="0.4"/>
			<circle class="st4" cx="24.3" cy="36.9" r="0.4"/>
			<circle class="st4" cx="25.2" cy="37.8" r="0.4"/>
			<circle class="st4" cx="26.1" cy="38.7" r="0.4"/>
			<circle class="st4" cx="27.2" cy="39.5" r="0.4"/>
			<circle class="st4" cx="28.3" cy="40.3" r="0.4"/>
			<circle class="st4" cx="29.5" cy="40.9" r="0.4"/>
			<circle class="st4" cx="30.7" cy="41.4" r="0.4"/>
			<circle class="st4" cx="32" cy="41.8" r="0.4"/>
			<circle class="st4" cx="33.3" cy="42.1" r="0.4"/>
			<circle class="st4" cx="34.6" cy="42.2" r="0.4"/>
			<circle class="st4" cx="35.9" cy="42.3" r="0.4"/>
			<circle class="st4" cx="37.3" cy="42.2" r="0.4"/>
			<circle class="st4" cx="38.6" cy="42.1" r="0.4"/>
			<circle class="st4" cx="39.9" cy="41.8" r="0.4"/>
			<circle class="st4" cx="41.1" cy="41.4" r="0.4"/>
			<circle class="st4" cx="42.4" cy="40.9" r="0.4"/>
			<circle class="st4" cx="43.5" cy="40.2" r="0.4"/>
			<circle class="st4" cx="44.7" cy="39.5" r="0.4"/>
			<circle class="st4" cx="45.7" cy="38.7" r="0.4"/>
			<circle class="st4" cx="46.7" cy="37.8" r="0.4"/>
			<circle class="st4" cx="47.6" cy="36.8" r="0.4"/>
			<circle class="st4" cx="48.4" cy="35.8" r="0.4"/>
			<circle class="st4" cx="49.1" cy="34.7" r="0.4"/>
			<circle class="st4" cx="49.7" cy="33.5" r="0.4"/>
			<circle class="st4" cx="50.2" cy="32.2" r="0.4"/>
			<circle class="st4" cx="50.6" cy="31" r="0.4"/>
			<circle class="st4" cx="50.9" cy="29.7" r="0.4"/>
			<circle class="st4" cx="51.1" cy="28.4" r="0.4"/>
			<circle class="st4" cx="51.1" cy="27" r="0.4"/>
			<circle class="st4" cx="51.1" cy="25.7" r="0.4"/>
			<circle class="st4" cx="50.9" cy="24.4" r="0.4"/>
			<circle class="st4" cx="50.6" cy="23.1" r="0.4"/>
			<circle class="st4" cx="50.2" cy="21.8" r="0.4"/>
			<circle class="st4" cx="49.7" cy="20.6" r="0.4"/>
			<circle class="st4" cx="49.1" cy="19.4" r="0.4"/>
			<circle class="st4" cx="48.4" cy="18.3" r="0.4"/>
			<circle class="st4" cx="47.6" cy="17.3" r="0.4"/>
			<circle class="st4" cx="46.7" cy="16.3" r="0.4"/>
			<circle class="st4" cx="45.7" cy="15.4" r="0.4"/>
			<circle class="st4" cx="44.6" cy="14.6" r="0.4"/>
			<circle class="st4" cx="43.5" cy="13.9" r="0.4"/>
			<circle class="st4" cx="42.3" cy="13.3" r="0.4"/>
			<circle class="st4" cx="41.1" cy="12.8" r="0.4"/>
			<circle class="st4" cx="39.8" cy="12.4" r="0.4"/>
			<circle class="st4" cx="38.5" cy="12.1" r="0.4"/>
			<circle class="st4" cx="37.2" cy="11.9" r="0.4"/>
		</g>
		<path class="st5" d="M27.9,20.4l3.8-3.2h8.6l3.8,3.2v5.4l-3.3,2.8l-6.7,1.1l-0.5,0.5v1.9h4.8l0.6-2h5.2v6.8H27.7v-8.9l3.3-2.6
			l6.8-1.1l0.6-0.5v-1.2l-0.7-0.6h-3.9l-0.6,2h-5.2V20.4z"/>
	</g>
</g>
</svg>
