<?xml version="1.0" encoding="utf-8"?>
<!-- Generator: Adobe Illustrator 19.1.0, SVG Export Plug-In . SVG Version: 6.00 Build 0)  -->
<svg version="1.1" id="Layer_1" xmlns="http://www.w3.org/2000/svg" xmlns:xlink="http://www.w3.org/1999/xlink" x="0px" y="0px"
	 viewBox="0 0 72 72" style="enable-background:new 0 0 72 72;" xml:space="preserve">
<style type="text/css">
	.st0{fill:#FFFFFF;stroke:#222A33;stroke-width:0.25;stroke-miterlimit:10;}
	.st1{fill:#5D2D2D;}
	.st2{fill:url(#SVGID_1_);}
	.st3{fill:none;stroke:#5D2D2D;stroke-width:0.25;stroke-miterlimit:10;}
	.st4{fill:none;stroke:#5D2D2D;stroke-width:0.1;stroke-miterlimit:10;}
	.st5{fill:#BF5B28;stroke:#5D2D2D;stroke-width:0.35;stroke-miterlimit:10;}
</style>
<g>
	<g>
		<polygon class="st0" points="40.2,13.3 54.7,56.4 38.8,68.9 30.1,17.9 		"/>
		<polygon class="st0" points="31.6,13.3 17.2,56.4 33,68.9 41.8,17.9 		"/>
	</g>
	<g>
		<path class="st0" d="M38.5,7c0,0-3.8-3.4-6.1-1.3l0.8,5.8l6.2,0.7L38.5,7z"/>
		<path class="st0" d="M43.6,8.4c0,0-2.8-4.3-5.6-2.8l-0.7,5.8l5.8,2.3L43.6,8.4z"/>
		<path class="st0" d="M48.3,11c0,0-1.6-4.8-4.6-4.2l-2.2,5.5l5,3.7L48.3,11z"/>
		<path class="st0" d="M52,14.8c0,0-0.3-5.1-3.4-5.2l-3.5,4.7l3.9,4.9L52,14.8z"/>
		<path class="st0" d="M54.7,19.3c0,0,1-5-1.9-5.9l-4.6,3.6l2.5,5.7L54.7,19.3z"/>
		<path class="st0" d="M56.1,24.5c0,0,2.3-4.6-0.3-6.2l-5.4,2.3l0.9,6.2L56.1,24.5z"/>
		<path class="st0" d="M56.1,29.8c0,0,3.4-3.8,1.3-6.1l-5.8,0.8l-0.7,6.2L56.1,29.8z"/>
		<path class="st0" d="M54.8,34.9c0,0,4.3-2.8,2.8-5.6l-5.8-0.7l-2.3,5.8L54.8,34.9z"/>
		<path class="st0" d="M52.1,39.5c0,0,4.8-1.6,4.2-4.6l-5.5-2.2l-3.7,5L52.1,39.5z"/>
		<path class="st0" d="M48.4,43.3c0,0,5.1-0.3,5.2-3.4l-4.7-3.5L44,40.3L48.4,43.3z"/>
		<path class="st0" d="M43.8,46c0,0,5,1,5.9-1.9l-3.6-4.6L40.4,42L43.8,46z"/>
		<path class="st0" d="M38.7,47.4c0,0,4.6,2.3,6.2-0.3l-2.3-5.4l-6.2,0.9L38.7,47.4z"/>
		<path class="st0" d="M33.4,47.4c0,0,3.8,3.4,6.1,1.3l-0.8-5.8l-6.2-0.7L33.4,47.4z"/>
		<path class="st0" d="M28.2,46.1c0,0,2.8,4.3,5.6,2.8l0.7-5.8l-5.8-2.3L28.2,46.1z"/>
		<path class="st0" d="M23.6,43.4c0,0,1.6,4.8,4.6,4.2l2.2-5.5l-5-3.7L23.6,43.4z"/>
		<path class="st0" d="M19.8,39.7c0,0,0.3,5.1,3.4,5.2l3.5-4.7l-3.9-4.9L19.8,39.7z"/>
		<path class="st0" d="M17.2,35.1c0,0-1,5,1.9,5.9l4.6-3.6l-2.5-5.7L17.2,35.1z"/>
		<path class="st0" d="M15.8,30c0,0-2.3,4.6,0.3,6.2l5.4-2.3l-0.9-6.2L15.8,30z"/>
		<path class="st0" d="M15.7,24.6c0,0-3.4,3.8-1.3,6.1l5.8-0.8l0.7-6.2L15.7,24.6z"/>
		<path class="st0" d="M17.1,19.5c0,0-4.3,2.8-2.8,5.6l5.8,0.7l2.3-5.8L17.1,19.5z"/>
		<path class="st0" d="M19.7,14.9c0,0-4.8,1.6-4.2,4.6l5.5,2.2l3.7-5L19.7,14.9z"/>
		<path class="st0" d="M23.5,11.1c0,0-5.1,0.3-5.2,3.4L23,18l4.9-3.9L23.5,11.1z"/>
		<path class="st0" d="M28.1,8.4c0,0-5-1-5.9,1.9l3.6,4.6l5.7-2.5L28.1,8.4z"/>
		<path class="st0" d="M32.6,7c0,0-3.9-2.3-5.6,0.3l2.3,5.4l4.3,1.5L32.6,7z"/>
	</g>
	<g>
		<circle class="st1" cx="35.9" cy="27.2" r="17.2"/>
		<linearGradient id="SVGID_1_" gradientUnits="userSpaceOnUse" x1="24.1248" y1="39.0323" x2="47.7536" y2="15.4035">
			<stop  offset="0" style="stop-color:#BF5B28"/>
			<stop  offset="2.187650e-02" style="stop-color:#C05F2A"/>
			<stop  offset="5.414685e-02" style="stop-color:#C46935"/>
			<stop  offset="9.288494e-02" style="stop-color:#CB7A4B"/>
			<stop  offset="0.1366" style="stop-color:#D4946C"/>
			<stop  offset="0.1845" style="stop-color:#E2B89B"/>
			<stop  offset="0.2352" style="stop-color:#F6EAE1"/>
			<stop  offset="0.25" style="stop-color:#FFFFFF"/>
			<stop  offset="0.2508" style="stop-color:#FEFDFB"/>
			<stop  offset="0.281" style="stop-color:#EACDB9"/>
			<stop  offset="0.312" style="stop-color:#DDAB89"/>
			<stop  offset="0.343" style="stop-color:#D39068"/>
			<stop  offset="0.3741" style="stop-color:#CB7C4E"/>
			<stop  offset="0.4052" style="stop-color:#C66E3A"/>
			<stop  offset="0.4365" style="stop-color:#C2632F"/>
			<stop  offset="0.468" style="stop-color:#BF5D29"/>
			<stop  offset="0.5" style="stop-color:#BF5B28"/>
			<stop  offset="0.5279" style="stop-color:#C05D29"/>
			<stop  offset="0.5589" style="stop-color:#C26430"/>
			<stop  offset="0.5914" style="stop-color:#C6703D"/>
			<stop  offset="0.6249" style="stop-color:#CD8153"/>
			<stop  offset="0.6592" style="stop-color:#D69770"/>
			<stop  offset="0.6942" style="stop-color:#E1B698"/>
			<stop  offset="0.729" style="stop-color:#F0DDCF"/>
			<stop  offset="0.75" style="stop-color:#FFFFFF"/>
			<stop  offset="0.7532" style="stop-color:#FCF8F5"/>
			<stop  offset="0.7942" style="stop-color:#E8C6AF"/>
			<stop  offset="0.8345" style="stop-color:#DAA17D"/>
			<stop  offset="0.8732" style="stop-color:#CF875C"/>
			<stop  offset="0.91" style="stop-color:#C87342"/>
			<stop  offset="0.9443" style="stop-color:#C36632"/>
			<stop  offset="0.9753" style="stop-color:#C05E2A"/>
			<stop  offset="1" style="stop-color:#BF5B28"/>
		</linearGradient>
		<circle class="st2" cx="35.9" cy="27.2" r="16.7"/>
		<circle class="st3" cx="35.9" cy="27.2" r="16.1"/>
		<g>
			<circle class="st4" cx="35.9" cy="12" r="0.4"/>
			<circle class="st4" cx="34.6" cy="12.1" r="0.4"/>
			<circle class="st4" cx="33.3" cy="12.2" r="0.4"/>
			<circle class="st4" cx="32" cy="12.5" r="0.4"/>
			<circle class="st4" cx="30.7" cy="12.9" r="0.4"/>
			<circle class="st4" cx="29.5" cy="13.4" r="0.4"/>
			<circle class="st4" cx="28.3" cy="14.1" r="0.4"/>
			<circle class="st4" cx="27.2" cy="14.8" r="0.4"/>
			<circle class="st4" cx="26.1" cy="15.6" r="0.4"/>
			<circle class="st4" cx="25.2" cy="16.5" r="0.4"/>
			<circle class="st4" cx="24.3" cy="17.5" r="0.4"/>
			<circle class="st4" cx="23.5" cy="18.5" r="0.4"/>
			<circle class="st4" cx="22.7" cy="19.6" r="0.4"/>
			<circle class="st4" cx="22.1" cy="20.8" r="0.4"/>
			<circle class="st4" cx="21.6" cy="22" r="0.4"/>
			<circle class="st4" cx="21.2" cy="23.3" r="0.4"/>
			<circle class="st4" cx="20.9" cy="24.6" r="0.4"/>
			<circle class="st4" cx="20.8" cy="25.9" r="0.4"/>
			<circle class="st4" cx="20.7" cy="27.2" r="0.4"/>
			<circle class="st4" cx="20.8" cy="28.6" r="0.4"/>
			<circle class="st4" cx="21" cy="29.9" r="0.4"/>
			<circle class="st4" cx="21.2" cy="31.2" r="0.4"/>
			<circle class="st4" cx="21.6" cy="32.4" r="0.4"/>
			<circle class="st4" cx="22.2" cy="33.7" r="0.4"/>
			<circle class="st4" cx="22.8" cy="34.8" r="0.4"/>
			<circle class="st4" cx="23.5" cy="36" r="0.4"/>
			<circle class="st4" cx="24.3" cy="37" r="0.4"/>
			<circle class="st4" cx="25.2" cy="38" r="0.4"/>
			<circle class="st4" cx="26.2" cy="38.9" r="0.4"/>
			<circle class="st4" cx="27.2" cy="39.7" r="0.4"/>
			<circle class="st4" cx="28.4" cy="40.4" r="0.4"/>
			<circle class="st4" cx="29.5" cy="41" r="0.4"/>
			<circle class="st4" cx="30.8" cy="41.5" r="0.4"/>
			<circle class="st4" cx="32" cy="41.9" r="0.4"/>
			<circle class="st4" cx="33.3" cy="42.2" r="0.4"/>
			<circle class="st4" cx="34.6" cy="42.4" r="0.4"/>
			<circle class="st4" cx="36" cy="42.4" r="0.4"/>
			<circle class="st4" cx="37.3" cy="42.4" r="0.4"/>
			<circle class="st4" cx="38.6" cy="42.2" r="0.4"/>
			<circle class="st4" cx="39.9" cy="41.9" r="0.4"/>
			<circle class="st4" cx="41.2" cy="41.5" r="0.4"/>
			<circle class="st4" cx="42.4" cy="41" r="0.4"/>
			<circle class="st4" cx="43.6" cy="40.4" r="0.4"/>
			<circle class="st4" cx="44.7" cy="39.7" r="0.4"/>
			<circle class="st4" cx="45.7" cy="38.9" r="0.4"/>
			<circle class="st4" cx="46.7" cy="38" r="0.4"/>
			<circle class="st4" cx="47.6" cy="37" r="0.4"/>
			<circle class="st4" cx="48.4" cy="35.9" r="0.4"/>
			<circle class="st4" cx="49.1" cy="34.8" r="0.4"/>
			<circle class="st4" cx="49.7" cy="33.6" r="0.4"/>
			<circle class="st4" cx="50.2" cy="32.4" r="0.4"/>
			<circle class="st4" cx="50.6" cy="31.1" r="0.4"/>
			<circle class="st4" cx="50.9" cy="29.8" r="0.4"/>
			<circle class="st4" cx="51.1" cy="28.5" r="0.4"/>
			<circle class="st4" cx="51.2" cy="27.2" r="0.4"/>
			<circle class="st4" cx="51.1" cy="25.9" r="0.4"/>
			<circle class="st4" cx="50.9" cy="24.5" r="0.4"/>
			<circle class="st4" cx="50.6" cy="23.3" r="0.4"/>
			<circle class="st4" cx="50.2" cy="22" r="0.4"/>
			<circle class="st4" cx="49.7" cy="20.8" r="0.4"/>
			<circle class="st4" cx="49.1" cy="19.6" r="0.4"/>
			<circle class="st4" cx="48.4" cy="18.5" r="0.4"/>
			<circle class="st4" cx="47.6" cy="17.4" r="0.4"/>
			<circle class="st4" cx="46.7" cy="16.4" r="0.4"/>
			<circle class="st4" cx="45.7" cy="15.5" r="0.4"/>
			<circle class="st4" cx="44.6" cy="14.7" r="0.4"/>
			<circle class="st4" cx="43.5" cy="14" r="0.4"/>
			<circle class="st4" cx="42.3" cy="13.4" r="0.4"/>
			<circle class="st4" cx="41.1" cy="12.9" r="0.4"/>
			<circle class="st4" cx="39.9" cy="12.5" r="0.4"/>
			<circle class="st4" cx="38.6" cy="12.2" r="0.4"/>
			<circle class="st4" cx="37.2" cy="12.1" r="0.4"/>
		</g>
		<path class="st5" d="M34.6,25.1h2.2l1.3-2.9h-4.1l-0.6,2h-5.2v-6.9H44v4.4l-2.4,4.4l2.6,2.2v5.3l-4,3.3h-8.4l-4-3.3v-3.6H33l0.6,2
			h4.1l0.7-0.6v-2.2l-0.7-0.6h-3V25.1z"/>
	</g>
</g>
</svg>
