<?xml version="1.0" encoding="utf-8"?>
<!-- Generator: Adobe Illustrator 19.1.0, SVG Export Plug-In . SVG Version: 6.00 Build 0)  -->
<svg version="1.1" id="Layer_1" xmlns="http://www.w3.org/2000/svg" xmlns:xlink="http://www.w3.org/1999/xlink" x="0px" y="0px"
	 viewBox="0 0 750 200" style="enable-background:new 0 0 750 200;" xml:space="preserve">
<style type="text/css">
	.st0{fill:#FFFFFF;}
	.st1{fill:#EB4C2B;}
</style>
<g>
	<g>
		<path class="st0" d="M24.4,108.9H47l7.7,23.3l7.7-23.3H77l7.7,23.3l7.7-23.3H115l-22,66.7H76.4l-6.7-20.2L63,175.6H46.4
			L24.4,108.9z"/>
		<path class="st0" d="M116.5,108.9h39.3v17.5h-18v7.4h17.7v16.6h-17.7v7.7h18.7v17.5h-40V108.9z"/>
		<path class="st0" d="M265.7,141.5c0-4.8,0.9-9.3,2.8-13.6c1.8-4.3,4.3-8,7.5-11.1c3.2-3.2,6.9-5.7,11.1-7.5
			c4.3-1.8,8.8-2.8,13.6-2.8s9.3,0.9,13.6,2.8c4.3,1.8,8,4.3,11.1,7.5c3.2,3.2,5.7,6.9,7.5,11.1c1.8,4.3,2.8,8.8,2.8,13.6
			c0,4.8-0.9,9.3-2.8,13.6c-1.8,4.3-4.3,8-7.5,11.2c-3.2,3.2-6.9,5.7-11.1,7.5c-4.3,1.8-8.8,2.8-13.6,2.8s-9.3-0.9-13.6-2.8
			c-4.3-1.8-8-4.3-11.1-7.5c-3.2-3.2-5.7-6.9-7.5-11.2C266.6,150.8,265.7,146.3,265.7,141.5z M286.7,141.5c0,1.9,0.4,3.8,1.1,5.4
			c0.7,1.7,1.7,3.2,3,4.5c1.3,1.3,2.8,2.3,4.4,3c1.7,0.7,3.5,1.1,5.5,1.1c1.9,0,3.8-0.4,5.5-1.1c1.7-0.7,3.2-1.7,4.4-3
			c1.3-1.3,2.3-2.8,3-4.5c0.7-1.7,1.1-3.5,1.1-5.4c0-1.9-0.4-3.8-1.1-5.5c-0.7-1.7-1.7-3.2-3-4.5c-1.3-1.3-2.8-2.3-4.4-3
			c-1.7-0.7-3.5-1.1-5.5-1.1c-1.9,0-3.8,0.4-5.5,1.1c-1.7,0.7-3.2,1.7-4.4,3c-1.3,1.3-2.3,2.8-3,4.5
			C287,137.7,286.7,139.6,286.7,141.5z"/>
		<path class="st0" d="M368.5,176.5c-4.2,0-8-0.5-11.4-1.6c-3.4-1.1-6.3-2.7-8.7-4.8c-2.4-2.1-4.2-4.8-5.6-8.1
			c-1.3-3.3-1.9-7.1-1.9-11.5v-42.4h21.3v41.5c0,2.3,0.5,4.1,1.5,5.4c1,1.2,2.6,1.9,4.8,1.9c2.3,0,3.9-0.6,4.9-1.9
			c1-1.2,1.5-3,1.5-5.4v-41.5h21.4v42.4c0,4.4-0.6,8.2-2,11.5c-1.3,3.3-3.2,6-5.6,8.1c-2.4,2.1-5.4,3.7-8.8,4.8
			C376.5,176,372.7,176.5,368.5,176.5z"/>
		<path class="st0" d="M402.9,108.1h23c4.3,0,8.2,0.6,11.9,1.7c3.6,1.1,6.8,2.8,9.4,5c2.7,2.2,4.8,4.9,6.2,8.1
			c1.5,3.2,2.2,7,2.2,11.1c0,3.3-0.5,6.2-1.4,8.5c-0.9,2.3-2,4.3-3.1,5.8c-1.3,1.7-2.8,3.2-4.5,4.4l12.5,22h-25l-10-16.9v16.9h-21.3
			V108.1z M424.2,140.9h1.1c2.5,0,4.7-0.6,6.5-1.7c1.8-1.1,2.6-3,2.6-5.7c0-2.7-0.9-4.6-2.6-5.7c-1.8-1.1-3.9-1.7-6.5-1.7h-1.1
			V140.9z"/>
		<path class="st0" d="M461.2,108.1h17.5l18.4,25.7v-25.7H518v66.7h-17.6l-18.3-25.6v25.6h-20.9V108.1z"/>
		<path class="st0" d="M525,108.1h39.3v17.5h-18v7.4H564v16.6h-17.7v7.7H565v17.5h-40V108.1z"/>
		<path class="st0" d="M586.2,146.1l-20.7-38h23.7l7.7,14.1l7.6-14.1h23.7l-20.7,38v28.7h-21.3V146.1z"/>
		<g>
			<rect x="265" y="68.8" class="st1" width="44.1" height="25.3"/>
			<rect x="156.9" y="68.8" class="st1" width="44.1" height="25.3"/>
		</g>
		<rect x="187.2" y="59" class="st0" width="91.6" height="44.9"/>
		<rect x="208.3" y="149.1" class="st0" width="49.4" height="27.4"/>
		<polygon class="st0" points="245.9,165.5 220.1,165.5 212.4,72.3 253.6,72.3 		"/>
		<circle class="st0" cx="233" cy="31.8" r="22.5"/>
	</g>
	<g>
		<path class="st1" d="M637.9,151.2l1,0.9v2.8l-2.1,1.8h-7.6v-2.3l1.1-0.3v-5.3l-1.1-0.3v-2.3h7.6l2,1.7v2.5L637.9,151.2z
			 M633.5,150.4h2.1l0.4-0.3v-1l-0.4-0.3h-2.1V150.4z M633.5,154.1h2.1l0.4-0.3v-1.3l-0.4-0.3h-2.1V154.1z"/>
		<path class="st1" d="M640.3,156.6v-2.3l1.1-0.3v-5.3l-1.1-0.3v-2.3h7.7l2,1.7v3.1l-1.5,1.2l1.1,1.8l0.8,0.1v2.4h-2.8l-2.4-4.1
			h-0.8v1.5l1.1,0.3v2.3H640.3z M644.5,150.5h2.1l0.4-0.3v-1.1l-0.4-0.3h-2.1V150.5z"/>
		<path class="st1" d="M662,154.4v2.3h-5.3v-2.3l0.8-0.3l-0.3-0.9H655l-0.3,0.9l0.7,0.3v2.3H651v-2.3l1.1-0.3l1.5-5.3l-1-0.3v-2.3h6
			l2,7.9L662,154.4z M655.4,151.4h1.3L656,149L655.4,151.4z"/>
		<path class="st1" d="M671.7,149.9h-2.8l-0.3-1.1h-2.1l-0.4,0.3v4.6l0.4,0.4h2l0.3-1.1h2.8v1.9c-0.7,0.6-1.4,1.2-2.1,1.8h-4.1
			l-2.4-2v-6.5l2.3-1.9h4.3l2,1.7V149.9z"/>
		<path class="st1" d="M682.4,148.8l-1.7,1.4l2.1,3.9l1.1,0.3v2.3h-5v-2.3l0.7-0.3l-1.2-2.1l-1.2,1v1.1l0.7,0.3v2.3H673v-2.3
			l1.1-0.3v-5.3l-1.1-0.3v-2.3h5v2.3l-0.7,0.3v2l2.3-2l-0.7-0.3v-2.3h5v2.3L682.4,148.8z"/>
		<path class="st1" d="M691.9,149.9l-0.3-1.1h-2.5v1.7h2.5v1.8h-2.5v1.8h2.5l0.3-1.1h2.2v3.6h-9.2v-2.3l1.1-0.3v-5.3l-1.1-0.3v-2.3
			h9.2v3.7H691.9z"/>
		<path class="st1" d="M703.2,150.5l-0.3-1.9h-1.1v5.4l1.3,0.3v2.3h-5.6v-2.3l1.3-0.3v-5.4h-1.1l-0.3,1.9H695v-4.3h10.4v4.3H703.2z"
			/>
		<path class="st1" d="M635.2,167.7l-0.3-1.1h-2.2l-0.4,0.3v4.6l0.4,0.4h1.7l0.5-0.4v-1.4h-1.4v-1.8h4.5v6.2h-2.3l-0.3-0.8l-1,0.8
			h-2.8l-2.4-2V166l2.3-1.9h4.4l2,1.7v2H635.2z"/>
		<path class="st1" d="M646.3,167.7l-0.3-1.1h-2.5v1.7h2.5v1.8h-2.5v1.8h2.5l0.3-1.1h2.2v3.6h-9.2v-2.3l1.1-0.3v-5.3l-1.1-0.3v-2.3
			h9.2v3.7H646.3z"/>
		<path class="st1" d="M661.1,164.1v2.3l-1.1,0.3v7.8h-3l-3.4-5.8v3.2l1.1,0.3v2.3h-4.9v-2.3l1.1-0.3v-5.3l-1.1-0.3v-2.3h4.5
			l3.1,5.6v-3l-1.1-0.3v-2.3H661.1z"/>
		<path class="st1" d="M668.9,167.7l-0.3-1.1h-2.5v1.7h2.5v1.8h-2.5v1.8h2.5l0.3-1.1h2.2v3.6H662v-2.3l1.1-0.3v-5.3l-1.1-0.3v-2.3
			h9.2v3.7H668.9z"/>
		<path class="st1" d="M672.4,174.5v-2.3l1.1-0.3v-5.3l-1.1-0.3v-2.3h7.7l2,1.7v3.1l-1.5,1.2l1.1,1.8l0.8,0.1v2.4h-2.8l-2.4-4.1
			h-0.8v1.5l1.1,0.3v2.3H672.4z M676.6,168.3h2.1l0.4-0.3V167l-0.4-0.3h-2.1V168.3z"/>
		<path class="st1" d="M694.1,172.2v2.3h-5.3v-2.3l0.8-0.3l-0.3-0.9h-2.2l-0.3,0.9l0.7,0.3v2.3h-4.5v-2.3l1.1-0.3l1.5-5.3l-1-0.3
			v-2.3h6l2,7.9L694.1,172.2z M687.5,169.2h1.3l-0.7-2.3L687.5,169.2z"/>
		<path class="st1" d="M702.1,168.4l-0.3-1.9h-1.1v5.4l1.3,0.3v2.3h-5.6v-2.3l1.3-0.3v-5.4h-1.1l-0.3,1.9h-2.2v-4.3h10.4v4.3H702.1z
			"/>
		<path class="st1" d="M711.8,174.5h-4.3l-2.2-1.9v-6.7l2.2-1.8h4.4l2.2,1.8v6.7C713.3,173.2,712.6,173.9,711.8,174.5z M708.8,166.7
			l-0.4,0.3v4.6l0.4,0.3h1.8l0.4-0.3V167l-0.4-0.3H708.8z"/>
		<path class="st1" d="M715.4,174.5v-2.3l1.1-0.3v-5.3l-1.1-0.3v-2.3h7.7l2,1.7v3.1l-1.5,1.2l1.1,1.8l0.8,0.1v2.4h-2.8l-2.4-4.1
			h-0.8v1.5l1.1,0.3v2.3H715.4z M719.6,168.3h2.1l0.4-0.3V167l-0.4-0.3h-2.1V168.3z"/>
	</g>
</g>
</svg>
