<?xml version="1.0" encoding="utf-8"?>
<!-- Generator: Adobe Illustrator 19.1.0, SVG Export Plug-In . SVG Version: 6.00 Build 0)  -->
<svg version="1.1" id="Layer_1" xmlns="http://www.w3.org/2000/svg" xmlns:xlink="http://www.w3.org/1999/xlink" x="0px" y="0px"
	 viewBox="0 0 72 72" style="enable-background:new 0 0 72 72;" xml:space="preserve">
<style type="text/css">
	.st0{fill:#972D21;stroke:#982E21;stroke-width:2;stroke-miterlimit:10;}
	.st1{fill:none;stroke:#982E21;stroke-width:4;stroke-miterlimit:10;}
</style>
<g>
	<path class="st0" d="M13.3,53.6c0.3-7.2,3.1-12.7,9.7-16.1c-2.4-2.9-3.4-6.2-2.7-9.8c0.5-2.8,1.9-5,4.2-6.8
		c4.4-3.4,10.5-3.2,14.7,0.5c4.5,4.1,4.8,9.7,0.8,16.2c6.5,3.3,8.9,8.9,9.2,15.9C37.2,53.6,25.4,53.6,13.3,53.6z M46.5,51
		c-0.8-5.1-3.1-8.8-7.7-10.8c-0.7-0.3-1.7-0.3-2.4,0c-3.4,1.5-6.6,1.4-9.9-0.1c-0.4-0.2-0.9-0.4-1.3-0.3c-4.1,0.7-9,6.8-8.9,11.2
		C26.3,51,36.3,51,46.5,51z M31.5,38.6c4.8,0,8.8-3.9,8.7-8.6c0-4.9-3.9-8.8-8.7-8.8c-4.8,0-8.7,3.9-8.8,8.6
		C22.7,34.7,26.6,38.6,31.5,38.6z"/>
	<line class="st1" x1="51.8" y1="17.3" x2="51.8" y2="31"/>
	<line class="st1" x1="58.7" y1="24.1" x2="45" y2="24.1"/>
</g>
</svg>
