<?xml version="1.0" encoding="utf-8"?>
<!-- Generator: Adobe Illustrator 19.1.0, SVG Export Plug-In . SVG Version: 6.00 Build 0)  -->
<svg version="1.1" id="Layer_1" xmlns="http://www.w3.org/2000/svg" xmlns:xlink="http://www.w3.org/1999/xlink" x="0px" y="0px"
	 viewBox="0 0 72 72" style="enable-background:new 0 0 72 72;" xml:space="preserve">
<style type="text/css">
	.st0{fill:#FFFFFF;stroke:#FFFFFF;stroke-width:2;stroke-miterlimit:10;}
	.st1{fill:#FFFFFF;stroke:#FFFFFF;stroke-width:4;stroke-miterlimit:10;}
</style>
<g>
	<path class="st0" d="M15.5,55.5c0.3-7.2,3.1-12.7,9.7-16.1c-2.4-2.9-3.4-6.2-2.7-9.8c0.5-2.8,1.9-5,4.2-6.8
		c4.4-3.4,10.5-3.2,14.7,0.5c4.5,4.1,4.8,9.7,0.8,16.2c6.5,3.3,8.9,8.9,9.2,15.9C39.4,55.5,27.6,55.5,15.5,55.5z M48.7,52.9
		c-0.8-5.1-3.1-8.8-7.7-10.8c-0.7-0.3-1.7-0.3-2.4,0c-3.4,1.5-6.6,1.4-9.9-0.1c-0.4-0.2-0.9-0.4-1.3-0.3c-4.1,0.7-9,6.8-8.9,11.2
		C28.5,52.9,38.5,52.9,48.7,52.9z M33.7,40.5c4.8,0,8.8-3.9,8.7-8.6c0-4.9-3.9-8.8-8.7-8.8S25,27,24.9,31.7
		C24.9,36.6,28.8,40.5,33.7,40.5z"/>
	<line class="st1" x1="54" y1="19.2" x2="54" y2="32.9"/>
	<line class="st1" x1="60.9" y1="26" x2="47.2" y2="26"/>
</g>
</svg>
