<?xml version="1.0" encoding="utf-8"?>
<!-- Generator: Adobe Illustrator 19.1.0, SVG Export Plug-In . SVG Version: 6.00 Build 0)  -->
<svg version="1.1" id="Layer_1" xmlns="http://www.w3.org/2000/svg" xmlns:xlink="http://www.w3.org/1999/xlink" x="0px" y="0px"
	 viewBox="0 0 72 72" style="enable-background:new 0 0 72 72;" xml:space="preserve">
<style type="text/css">
	.st0{fill:#FFFFFF;}
</style>
<path class="st0" d="M36,13.5L14.4,33.3H20v25.2h32.1V33.3h5.5L36,13.5z M43.4,45.4c-0.8,1.6-1.9,3-3.2,4.2c-1,1-2.2,1.9-3.4,2.7
	c-0.2,0.1-0.4,0.3-0.7,0.4c-0.1,0.1-0.3,0.2-0.5,0c-1.6-1.1-3.1-2.2-4.5-3.6C30,48,29,46.7,28.3,45.3c-0.5-1.1-0.9-2.2-0.8-3.4
	c0.1-1.1,0.6-2,1.4-2.7c0.5-0.4,1.1-0.7,1.7-0.9c0.7-0.2,1.4-0.1,2.1,0.1c1.1,0.3,1.9,1,2.4,2c0.2,0.3,0.3,0.7,0.5,1
	c0,0.1,0.1,0.1,0.1,0.2c0.1-0.1,0.1-0.1,0.2-0.2c0.3-0.5,0.5-0.9,0.8-1.4c0.5-0.8,1.2-1.3,2.1-1.6c0.7-0.2,1.4-0.3,2.1-0.1
	c1.1,0.3,1.9,0.9,2.6,1.8c0.4,0.7,0.6,1.4,0.6,2.1C44.3,43.5,43.9,44.5,43.4,45.4z"/>
</svg>
