<?xml version="1.0" encoding="utf-8"?>
<!-- Generator: Adobe Illustrator 19.1.0, SVG Export Plug-In . SVG Version: 6.00 Build 0)  -->
<svg version="1.1" id="Layer_1" xmlns="http://www.w3.org/2000/svg" xmlns:xlink="http://www.w3.org/1999/xlink" x="0px" y="0px"
	 viewBox="0 0 72 72" style="enable-background:new 0 0 72 72;" xml:space="preserve">
<style type="text/css">
	.st0{fill:#972D21;}
</style>
<g>
	<polyline class="st0" points="35.2,14.2 13.6,34 35.2,34 	"/>
	<polyline class="st0" points="35.2,14.2 56.8,34 35.2,34 	"/>
	<path class="st0" d="M19.2,34v25.2h32.1V34H19.2z M44,45.6c-0.1,0.5-0.4,1-0.6,1.4c-0.4,0.6-0.8,1.1-1.3,1.6
		c-0.6,0.6-1.3,1.2-2,1.7c-0.4,0.3-0.8,0.6-1.3,0.9c-0.7,0.6-1.4,1.2-2.1,1.8c-0.4,0.4-0.8,0.8-1.2,1.2c-0.1,0.1-0.2,0.2-0.3,0.3
		c0,0.1-0.1,0.1-0.1,0c-0.1-0.2-0.2-0.4-0.4-0.6c-0.2-0.3-0.5-0.6-0.8-0.8c-0.7-0.6-1.4-1.2-2.2-1.8c-0.7-0.5-1.3-1-2-1.5
		c-0.5-0.4-1.1-0.9-1.6-1.4c-0.5-0.5-0.9-1.1-1.3-1.7c-0.3-0.5-0.5-1.1-0.6-1.7c-0.1-0.6-0.2-1.3-0.2-2c0-0.3,0-0.7,0.1-1
		c0.1-0.3,0.2-0.7,0.4-1c0.3-0.6,0.7-1.2,1.3-1.6c0.3-0.2,0.5-0.4,0.9-0.6c0.3-0.1,0.5-0.3,0.8-0.3c0.2-0.1,0.5-0.1,0.7-0.1
		c0.4,0,0.8,0,1.1,0c0.5,0,1,0.1,1.4,0.4c0.6,0.3,1.2,0.8,1.6,1.3c0.2,0.3,0.4,0.6,0.5,0.9c0.1,0.2,0.1,0.4,0.2,0.6c0,0,0,0,0,0
		c0.1-0.2,0.2-0.3,0.2-0.5c0.2-0.5,0.5-0.9,0.8-1.2c0.5-0.6,1.2-1,1.9-1.2c0.5-0.2,1-0.2,1.6-0.2c1.2,0.1,2.2,0.5,3,1.2
		c0.5,0.4,0.9,1,1.1,1.6c0.1,0.3,0.2,0.6,0.3,0.9c0.1,0.6,0.1,1.1,0.1,1.7C44.2,44.5,44.2,45,44,45.6z"/>
</g>
</svg>
