<?xml version="1.0" encoding="utf-8"?>
<!-- Generator: Adobe Illustrator 19.1.0, SVG Export Plug-In . SVG Version: 6.00 Build 0)  -->
<svg version="1.1" id="Layer_2" xmlns="http://www.w3.org/2000/svg" xmlns:xlink="http://www.w3.org/1999/xlink" x="0px" y="0px"
	 viewBox="-923 505 72 72" style="enable-background:new -923 505 72 72;" xml:space="preserve">
<style type="text/css">
	.st0{fill:#972D21;}
</style>
<path class="st0" d="M-887,516.1l-21.6,19.8l5.6,0v25.2h32.1v-25.2h5.5L-887,516.1z M-879.6,548c-0.8,1.6-1.9,3-3.2,4.2
	c-1,1-2.2,1.9-3.4,2.7c-0.2,0.1-0.4,0.3-0.7,0.4c-0.1,0.1-0.3,0.2-0.5,0c-1.6-1.1-3.1-2.2-4.5-3.6c-1.1-1.1-2.1-2.4-2.8-3.8
	c-0.5-1.1-0.9-2.2-0.8-3.4c0.1-1.1,0.6-2,1.4-2.7c0.5-0.4,1.1-0.7,1.7-0.9c0.7-0.2,1.4-0.1,2.1,0.1c1.1,0.3,1.9,1,2.4,2
	c0.2,0.3,0.3,0.7,0.5,1c0,0.1,0.1,0.1,0.1,0.2c0.1-0.1,0.1-0.1,0.2-0.2c0.3-0.5,0.5-0.9,0.8-1.4c0.5-0.8,1.2-1.3,2.1-1.6
	c0.7-0.2,1.4-0.3,2.1-0.1c1.1,0.3,1.9,0.9,2.6,1.8c0.4,0.7,0.6,1.4,0.6,2.1C-878.7,546.1-879.1,547.1-879.6,548z"/>
</svg>
